<svg id="圖層_2" data-name="圖層 2" xmlns="http://www.w3.org/2000/svg" viewBox="0 0 163.1 170"><defs><style>.cls-1{fill:#00357f;}.cls-2{fill:#fff;}</style></defs><rect class="cls-1" x="23.62" y="19.35" width="29.61" height="45.43" rx="8.02"/><path class="cls-2" d="M63.65,36.85a5.52,5.52,0,0,1,5.52,5.53V71.75a5.53,5.53,0,0,1-5.52,5.53H50.09a5.53,5.53,0,0,1-5.52-5.53V42.38a5.52,5.52,0,0,1,5.52-5.53H63.65m0-5H50.09A10.54,10.54,0,0,0,39.57,42.38V71.75A10.54,10.54,0,0,0,50.09,82.28H63.65A10.54,10.54,0,0,0,74.17,71.75V42.38A10.54,10.54,0,0,0,63.65,31.85Z" transform="translate(-18.45 -15)"/><path class="cls-1" d="M34.39,103.33A13.42,13.42,0,0,1,25.5,79.86L92.67,20.48a11.9,11.9,0,0,1,15.82.06l66.09,59.39a13.42,13.42,0,0,1-9,23.4Z" transform="translate(-18.45 -15)"/><path class="cls-2" d="M100.54,20a9.39,9.39,0,0,1,6.28,2.4l66.09,59.39a10.92,10.92,0,0,1-7.3,19H34.39a10.92,10.92,0,0,1-7.23-19.1L94.33,22.35A9.37,9.37,0,0,1,100.54,20m0-5A14.34,14.34,0,0,0,91,18.61L23.85,78a15.92,15.92,0,0,0,10.54,27.85H165.61a15.92,15.92,0,0,0,10.64-27.76L110.16,18.68A14.41,14.41,0,0,0,100.54,15Z" transform="translate(-18.45 -15)"/><path class="cls-1" d="M61.4,155.35V86.26a15.72,15.72,0,0,1,15.71-15.7H124a15.71,15.71,0,0,1,15.7,15.7v69.09Z" transform="translate(-18.45 -15)"/><path class="cls-2" d="M124,73.06a13.2,13.2,0,0,1,13.2,13.2v66.59H63.9V86.26a13.2,13.2,0,0,1,13.21-13.2H124m0-5H77.11A18.22,18.22,0,0,0,58.9,86.26v71.59h83.31V86.26A18.21,18.21,0,0,0,124,68.06Z" transform="translate(-18.45 -15)"/><path class="cls-1" d="M137.21,182.5a7.56,7.56,0,0,1-7.19-5.35l-2.21-7.38H74.1l-3.27,7.79a7.51,7.51,0,0,1-9.84,4,7.5,7.5,0,0,1-4-9.83l1.37-3.25A27.87,27.87,0,0,1,38.9,142v-37A11.19,11.19,0,0,1,50.08,93.76H60.5a11.18,11.18,0,0,1,11.17,11.17v25.24a8.25,8.25,0,0,0,8.24,8.23h41.8a8.25,8.25,0,0,0,8.24-8.23V104.93a11.18,11.18,0,0,1,11.17-11.17h10.43a11.18,11.18,0,0,1,11.17,11.17v37a27.88,27.88,0,0,1-19.6,26.56l1.29,4.29a7.52,7.52,0,0,1-7.2,9.67Z" transform="translate(-18.45 -15)"/><path class="cls-2" d="M151.55,96.26a8.67,8.67,0,0,1,8.67,8.67v37A25.29,25.29,0,0,1,140,166.76l2,6.79a5,5,0,0,1-3.36,6.24,5.12,5.12,0,0,1-1.44.21,5,5,0,0,1-4.79-3.57l-2.76-9.16H72.44l-3.92,9.32a5,5,0,0,1-4.62,3.07,5.13,5.13,0,0,1-1.94-.39,5,5,0,0,1-2.68-6.56l2.49-5.93A25.29,25.29,0,0,1,41.4,142v-37a8.68,8.68,0,0,1,8.68-8.67H60.5a8.67,8.67,0,0,1,8.67,8.67v25.24A10.73,10.73,0,0,0,79.91,140.9h41.8a10.73,10.73,0,0,0,10.74-10.73V104.93a8.67,8.67,0,0,1,8.67-8.67h10.43m0-5H141.12a13.68,13.68,0,0,0-13.67,13.67v25.24a5.74,5.74,0,0,1-5.74,5.73H79.91a5.74,5.74,0,0,1-5.74-5.73V104.93A13.68,13.68,0,0,0,60.5,91.26H50.08A13.69,13.69,0,0,0,36.4,104.93v37a30.37,30.37,0,0,0,18.63,28l-.36.84a10,10,0,1,0,18.46,7.75l2.63-6.25H126l1.68,5.6a10.07,10.07,0,0,0,9.58,7.13,9.66,9.66,0,0,0,2.88-.43,10,10,0,0,0,6.71-12.46l-.61-2a30.4,30.4,0,0,0,19-28.12v-37a13.68,13.68,0,0,0-13.67-13.67Z" transform="translate(-18.45 -15)"/><path class="cls-2" d="M91.14,88.71v12.68h19.35V88.71a5.88,5.88,0,0,1,1.22-4.07,4.1,4.1,0,0,1,3.21-1.36,4.3,4.3,0,0,1,3.28,1.34,5.85,5.85,0,0,1,1.25,4.09v34.87a5.79,5.79,0,0,1-1.27,4.1,4.23,4.23,0,0,1-3.26,1.36,4.12,4.12,0,0,1-3.23-1.37,6.07,6.07,0,0,1-1.2-4.09V108.69H91.14v14.89a5.79,5.79,0,0,1-1.27,4.1A4.25,4.25,0,0,1,86.61,129a4.09,4.09,0,0,1-3.23-1.37,6.07,6.07,0,0,1-1.21-4.09V88.71a6,6,0,0,1,1.2-4.07,4.06,4.06,0,0,1,3.24-1.36,4.3,4.3,0,0,1,3.28,1.34A5.85,5.85,0,0,1,91.14,88.71Z" transform="translate(-18.45 -15)"/></svg>